<mxfile host="app.diagrams.net" modified="2021-05-17T10:30:34.984Z" agent="5.0 (Windows NT 10.0; Win64; x64) AppleWebKit/537.36 (KHTML, like Gecko) Chrome/90.0.4430.212 Safari/537.36" etag="lLo3A2RzZ1R3MGM_Et4v" version="14.6.13" type="github">
  <diagram id="R2lEEEUBdFMjLlhIrx00" name="1.1 E-R模型图">
    <mxGraphModel dx="1037" dy="1688" grid="1" gridSize="10" guides="1" tooltips="1" connect="1" arrows="1" fold="1" page="1" pageScale="1" pageWidth="850" pageHeight="1100" math="0" shadow="0" extFonts="Permanent Marker^https://fonts.googleapis.com/css?family=Permanent+Marker">
      <root>
        <mxCell id="0" />
        <mxCell id="1" parent="0" />
        <mxCell id="GyMKaZcAImTs9EdHjO7f-195" value="" style="whiteSpace=wrap;html=1;fillColor=none;" vertex="1" parent="1">
          <mxGeometry y="-20" width="850" height="500" as="geometry" />
        </mxCell>
        <mxCell id="GyMKaZcAImTs9EdHjO7f-196" value="&lt;span style=&quot;font-size: 20px&quot;&gt;学生&lt;/span&gt;" style="whiteSpace=wrap;html=1;align=center;fillColor=none;" vertex="1" parent="1">
          <mxGeometry x="180" y="320" width="100" height="40" as="geometry" />
        </mxCell>
        <mxCell id="GyMKaZcAImTs9EdHjO7f-206" value="" style="edgeStyle=orthogonalEdgeStyle;rounded=0;orthogonalLoop=1;jettySize=auto;html=1;endArrow=none;endFill=0;" edge="1" parent="1" source="GyMKaZcAImTs9EdHjO7f-197" target="GyMKaZcAImTs9EdHjO7f-205">
          <mxGeometry relative="1" as="geometry" />
        </mxCell>
        <mxCell id="GyMKaZcAImTs9EdHjO7f-232" value="" style="edgeStyle=orthogonalEdgeStyle;rounded=0;orthogonalLoop=1;jettySize=auto;html=1;endArrow=none;endFill=0;" edge="1" parent="1" source="GyMKaZcAImTs9EdHjO7f-197" target="GyMKaZcAImTs9EdHjO7f-230">
          <mxGeometry relative="1" as="geometry" />
        </mxCell>
        <mxCell id="GyMKaZcAImTs9EdHjO7f-197" value="&lt;font style=&quot;font-size: 20px&quot;&gt;教师&lt;/font&gt;" style="whiteSpace=wrap;html=1;align=center;fillColor=none;" vertex="1" parent="1">
          <mxGeometry x="610" y="80" width="100" height="40" as="geometry" />
        </mxCell>
        <mxCell id="GyMKaZcAImTs9EdHjO7f-198" value="&lt;font style=&quot;font-size: 20px&quot;&gt;课程&lt;/font&gt;" style="whiteSpace=wrap;html=1;align=center;fillColor=none;" vertex="1" parent="1">
          <mxGeometry x="610" y="320" width="100" height="40" as="geometry" />
        </mxCell>
        <mxCell id="GyMKaZcAImTs9EdHjO7f-249" value="" style="edgeStyle=orthogonalEdgeStyle;rounded=0;orthogonalLoop=1;jettySize=auto;html=1;endArrow=none;endFill=0;" edge="1" parent="1" source="GyMKaZcAImTs9EdHjO7f-199" target="GyMKaZcAImTs9EdHjO7f-248">
          <mxGeometry relative="1" as="geometry" />
        </mxCell>
        <mxCell id="GyMKaZcAImTs9EdHjO7f-199" value="&lt;font style=&quot;font-size: 20px&quot;&gt;班级&lt;/font&gt;" style="whiteSpace=wrap;html=1;align=center;fillColor=none;" vertex="1" parent="1">
          <mxGeometry x="180" y="80" width="100" height="40" as="geometry" />
        </mxCell>
        <mxCell id="GyMKaZcAImTs9EdHjO7f-203" value="" style="edgeStyle=orthogonalEdgeStyle;rounded=0;orthogonalLoop=1;jettySize=auto;html=1;endArrow=none;endFill=0;" edge="1" parent="1" source="GyMKaZcAImTs9EdHjO7f-202" target="GyMKaZcAImTs9EdHjO7f-196">
          <mxGeometry relative="1" as="geometry" />
        </mxCell>
        <mxCell id="GyMKaZcAImTs9EdHjO7f-204" value="" style="edgeStyle=orthogonalEdgeStyle;rounded=0;orthogonalLoop=1;jettySize=auto;html=1;endArrow=none;endFill=0;exitX=0.5;exitY=0;exitDx=0;exitDy=0;" edge="1" parent="1" source="GyMKaZcAImTs9EdHjO7f-202" target="GyMKaZcAImTs9EdHjO7f-199">
          <mxGeometry relative="1" as="geometry">
            <Array as="points">
              <mxPoint x="230" y="130" />
              <mxPoint x="230" y="130" />
            </Array>
          </mxGeometry>
        </mxCell>
        <mxCell id="GyMKaZcAImTs9EdHjO7f-247" value="" style="edgeStyle=orthogonalEdgeStyle;rounded=0;orthogonalLoop=1;jettySize=auto;html=1;endArrow=none;endFill=0;" edge="1" parent="1" source="GyMKaZcAImTs9EdHjO7f-202" target="GyMKaZcAImTs9EdHjO7f-246">
          <mxGeometry relative="1" as="geometry" />
        </mxCell>
        <mxCell id="GyMKaZcAImTs9EdHjO7f-202" value="&lt;font style=&quot;font-size: 20px&quot;&gt;选修&lt;/font&gt;" style="shape=rhombus;perimeter=rhombusPerimeter;whiteSpace=wrap;html=1;align=center;fillColor=none;" vertex="1" parent="1">
          <mxGeometry x="170" y="190" width="120" height="60" as="geometry" />
        </mxCell>
        <mxCell id="GyMKaZcAImTs9EdHjO7f-207" value="" style="edgeStyle=orthogonalEdgeStyle;rounded=0;orthogonalLoop=1;jettySize=auto;html=1;endArrow=none;endFill=0;entryX=1;entryY=0.5;entryDx=0;entryDy=0;" edge="1" parent="1" source="GyMKaZcAImTs9EdHjO7f-205" target="GyMKaZcAImTs9EdHjO7f-199">
          <mxGeometry relative="1" as="geometry" />
        </mxCell>
        <mxCell id="GyMKaZcAImTs9EdHjO7f-205" value="&lt;font style=&quot;font-size: 20px&quot;&gt;主讲&lt;/font&gt;" style="shape=rhombus;perimeter=rhombusPerimeter;whiteSpace=wrap;html=1;align=center;fillColor=none;" vertex="1" parent="1">
          <mxGeometry x="390" y="70" width="120" height="60" as="geometry" />
        </mxCell>
        <mxCell id="GyMKaZcAImTs9EdHjO7f-208" value="&lt;font style=&quot;font-size: 20px&quot;&gt;内容&lt;/font&gt;" style="shape=rhombus;perimeter=rhombusPerimeter;whiteSpace=wrap;html=1;align=center;fillColor=none;" vertex="1" parent="1">
          <mxGeometry x="390" y="190" width="120" height="60" as="geometry" />
        </mxCell>
        <mxCell id="GyMKaZcAImTs9EdHjO7f-209" value="" style="endArrow=none;html=1;rounded=0;exitX=0.5;exitY=1;exitDx=0;exitDy=0;" edge="1" parent="1" source="GyMKaZcAImTs9EdHjO7f-208" target="GyMKaZcAImTs9EdHjO7f-198">
          <mxGeometry relative="1" as="geometry">
            <mxPoint x="340" y="290" as="sourcePoint" />
            <mxPoint x="500" y="290" as="targetPoint" />
          </mxGeometry>
        </mxCell>
        <mxCell id="GyMKaZcAImTs9EdHjO7f-210" value="" style="endArrow=none;html=1;rounded=0;entryX=0.5;entryY=0;entryDx=0;entryDy=0;exitX=0.5;exitY=1;exitDx=0;exitDy=0;" edge="1" parent="1" target="GyMKaZcAImTs9EdHjO7f-208">
          <mxGeometry relative="1" as="geometry">
            <mxPoint x="280" y="120" as="sourcePoint" />
            <mxPoint x="400" y="190" as="targetPoint" />
          </mxGeometry>
        </mxCell>
        <mxCell id="GyMKaZcAImTs9EdHjO7f-216" value="" style="edgeStyle=orthogonalEdgeStyle;rounded=0;orthogonalLoop=1;jettySize=auto;html=1;endArrow=none;endFill=0;" edge="1" parent="1" source="GyMKaZcAImTs9EdHjO7f-214" target="GyMKaZcAImTs9EdHjO7f-196">
          <mxGeometry relative="1" as="geometry" />
        </mxCell>
        <mxCell id="GyMKaZcAImTs9EdHjO7f-214" value="学号" style="ellipse;whiteSpace=wrap;html=1;align=center;fontStyle=4;fillColor=none;" vertex="1" parent="1">
          <mxGeometry x="40" y="320" width="100" height="40" as="geometry" />
        </mxCell>
        <mxCell id="GyMKaZcAImTs9EdHjO7f-217" value="姓名" style="ellipse;whiteSpace=wrap;html=1;align=center;fillColor=none;" vertex="1" parent="1">
          <mxGeometry x="70" y="400" width="100" height="40" as="geometry" />
        </mxCell>
        <mxCell id="GyMKaZcAImTs9EdHjO7f-218" value="" style="endArrow=none;html=1;rounded=0;entryX=0;entryY=1;entryDx=0;entryDy=0;" edge="1" parent="1" source="GyMKaZcAImTs9EdHjO7f-217" target="GyMKaZcAImTs9EdHjO7f-196">
          <mxGeometry relative="1" as="geometry">
            <mxPoint x="340" y="280" as="sourcePoint" />
            <mxPoint x="500" y="280" as="targetPoint" />
          </mxGeometry>
        </mxCell>
        <mxCell id="GyMKaZcAImTs9EdHjO7f-220" value="" style="edgeStyle=orthogonalEdgeStyle;rounded=0;orthogonalLoop=1;jettySize=auto;html=1;endArrow=none;endFill=0;" edge="1" parent="1" source="GyMKaZcAImTs9EdHjO7f-219" target="GyMKaZcAImTs9EdHjO7f-196">
          <mxGeometry relative="1" as="geometry" />
        </mxCell>
        <mxCell id="GyMKaZcAImTs9EdHjO7f-219" value="性别" style="ellipse;whiteSpace=wrap;html=1;align=center;fillColor=none;" vertex="1" parent="1">
          <mxGeometry x="180" y="400" width="100" height="40" as="geometry" />
        </mxCell>
        <mxCell id="GyMKaZcAImTs9EdHjO7f-221" value="院系" style="ellipse;whiteSpace=wrap;html=1;align=center;fillColor=none;" vertex="1" parent="1">
          <mxGeometry x="290" y="400" width="100" height="40" as="geometry" />
        </mxCell>
        <mxCell id="GyMKaZcAImTs9EdHjO7f-222" value="" style="endArrow=none;html=1;rounded=0;exitX=1;exitY=1;exitDx=0;exitDy=0;" edge="1" parent="1" source="GyMKaZcAImTs9EdHjO7f-196" target="GyMKaZcAImTs9EdHjO7f-221">
          <mxGeometry relative="1" as="geometry">
            <mxPoint x="340" y="280" as="sourcePoint" />
            <mxPoint x="500" y="280" as="targetPoint" />
          </mxGeometry>
        </mxCell>
        <mxCell id="GyMKaZcAImTs9EdHjO7f-224" value="" style="edgeStyle=orthogonalEdgeStyle;rounded=0;orthogonalLoop=1;jettySize=auto;html=1;endArrow=none;endFill=0;" edge="1" parent="1" source="GyMKaZcAImTs9EdHjO7f-223" target="GyMKaZcAImTs9EdHjO7f-196">
          <mxGeometry relative="1" as="geometry" />
        </mxCell>
        <mxCell id="GyMKaZcAImTs9EdHjO7f-223" value="专业" style="ellipse;whiteSpace=wrap;html=1;align=center;fillColor=none;" vertex="1" parent="1">
          <mxGeometry x="320" y="320" width="100" height="40" as="geometry" />
        </mxCell>
        <mxCell id="GyMKaZcAImTs9EdHjO7f-227" value="" style="edgeStyle=orthogonalEdgeStyle;rounded=0;orthogonalLoop=1;jettySize=auto;html=1;endArrow=none;endFill=0;" edge="1" parent="1" source="GyMKaZcAImTs9EdHjO7f-226" target="GyMKaZcAImTs9EdHjO7f-197">
          <mxGeometry relative="1" as="geometry" />
        </mxCell>
        <mxCell id="GyMKaZcAImTs9EdHjO7f-226" value="工作证编号" style="ellipse;whiteSpace=wrap;html=1;align=center;fontStyle=4;fillColor=none;" vertex="1" parent="1">
          <mxGeometry x="740" y="80" width="100" height="40" as="geometry" />
        </mxCell>
        <mxCell id="GyMKaZcAImTs9EdHjO7f-228" value="姓名" style="ellipse;whiteSpace=wrap;html=1;align=center;fillColor=none;" vertex="1" parent="1">
          <mxGeometry x="720" width="100" height="40" as="geometry" />
        </mxCell>
        <mxCell id="GyMKaZcAImTs9EdHjO7f-230" value="职称" style="ellipse;whiteSpace=wrap;html=1;align=center;fillColor=none;" vertex="1" parent="1">
          <mxGeometry x="610" width="100" height="40" as="geometry" />
        </mxCell>
        <mxCell id="GyMKaZcAImTs9EdHjO7f-231" value="" style="endArrow=none;html=1;rounded=0;entryX=1;entryY=0;entryDx=0;entryDy=0;exitX=0.5;exitY=1;exitDx=0;exitDy=0;" edge="1" parent="1" source="GyMKaZcAImTs9EdHjO7f-228" target="GyMKaZcAImTs9EdHjO7f-197">
          <mxGeometry relative="1" as="geometry">
            <mxPoint x="340" y="280" as="sourcePoint" />
            <mxPoint x="500" y="280" as="targetPoint" />
          </mxGeometry>
        </mxCell>
        <mxCell id="GyMKaZcAImTs9EdHjO7f-233" value="出生日期" style="ellipse;whiteSpace=wrap;html=1;align=center;fillColor=none;" vertex="1" parent="1">
          <mxGeometry x="500" width="100" height="40" as="geometry" />
        </mxCell>
        <mxCell id="GyMKaZcAImTs9EdHjO7f-234" value="" style="endArrow=none;html=1;rounded=0;exitX=0.5;exitY=1;exitDx=0;exitDy=0;entryX=0;entryY=0;entryDx=0;entryDy=0;" edge="1" parent="1" source="GyMKaZcAImTs9EdHjO7f-233" target="GyMKaZcAImTs9EdHjO7f-197">
          <mxGeometry relative="1" as="geometry">
            <mxPoint x="340" y="280" as="sourcePoint" />
            <mxPoint x="500" y="280" as="targetPoint" />
          </mxGeometry>
        </mxCell>
        <mxCell id="GyMKaZcAImTs9EdHjO7f-236" value="" style="edgeStyle=orthogonalEdgeStyle;rounded=0;orthogonalLoop=1;jettySize=auto;html=1;endArrow=none;endFill=0;" edge="1" parent="1" source="GyMKaZcAImTs9EdHjO7f-235" target="GyMKaZcAImTs9EdHjO7f-198">
          <mxGeometry relative="1" as="geometry" />
        </mxCell>
        <mxCell id="GyMKaZcAImTs9EdHjO7f-235" value="编号" style="ellipse;whiteSpace=wrap;html=1;align=center;fontStyle=4;fillColor=none;" vertex="1" parent="1">
          <mxGeometry x="460" y="320" width="100" height="40" as="geometry" />
        </mxCell>
        <mxCell id="GyMKaZcAImTs9EdHjO7f-237" value="名称&lt;span style=&quot;color: rgba(0 , 0 , 0 , 0) ; font-family: monospace ; font-size: 0px&quot;&gt;%3CmxGraphModel%3E%3Croot%3E%3CmxCell%20id%3D%220%22%2F%3E%3CmxCell%20id%3D%221%22%20parent%3D%220%22%2F%3E%3CmxCell%20id%3D%222%22%20value%3D%22%E5%87%BA%E7%94%9F%E6%97%A5%E6%9C%9F%22%20style%3D%22ellipse%3BwhiteSpace%3Dwrap%3Bhtml%3D1%3Balign%3Dcenter%3BfillColor%3Dnone%3B%22%20vertex%3D%221%22%20parent%3D%221%22%3E%3CmxGeometry%20x%3D%22500%22%20width%3D%22100%22%20height%3D%2240%22%20as%3D%22geometry%22%2F%3E%3C%2FmxCell%3E%3C%2Froot%3E%3C%2FmxGraphModel%3E&lt;/span&gt;" style="ellipse;whiteSpace=wrap;html=1;align=center;fillColor=none;" vertex="1" parent="1">
          <mxGeometry x="490" y="400" width="100" height="40" as="geometry" />
        </mxCell>
        <mxCell id="GyMKaZcAImTs9EdHjO7f-240" value="" style="edgeStyle=orthogonalEdgeStyle;rounded=0;orthogonalLoop=1;jettySize=auto;html=1;endArrow=none;endFill=0;" edge="1" parent="1" source="GyMKaZcAImTs9EdHjO7f-238" target="GyMKaZcAImTs9EdHjO7f-198">
          <mxGeometry relative="1" as="geometry" />
        </mxCell>
        <mxCell id="GyMKaZcAImTs9EdHjO7f-238" value="类别代码" style="ellipse;whiteSpace=wrap;html=1;align=center;fillColor=none;" vertex="1" parent="1">
          <mxGeometry x="610" y="400" width="100" height="40" as="geometry" />
        </mxCell>
        <mxCell id="GyMKaZcAImTs9EdHjO7f-239" value="学分数" style="ellipse;whiteSpace=wrap;html=1;align=center;fillColor=none;" vertex="1" parent="1">
          <mxGeometry x="730" y="400" width="100" height="40" as="geometry" />
        </mxCell>
        <mxCell id="GyMKaZcAImTs9EdHjO7f-241" value="" style="endArrow=none;html=1;rounded=0;entryX=0;entryY=1;entryDx=0;entryDy=0;" edge="1" parent="1" source="GyMKaZcAImTs9EdHjO7f-237" target="GyMKaZcAImTs9EdHjO7f-198">
          <mxGeometry relative="1" as="geometry">
            <mxPoint x="340" y="280" as="sourcePoint" />
            <mxPoint x="500" y="280" as="targetPoint" />
          </mxGeometry>
        </mxCell>
        <mxCell id="GyMKaZcAImTs9EdHjO7f-242" value="" style="endArrow=none;html=1;rounded=0;entryX=1;entryY=1;entryDx=0;entryDy=0;" edge="1" parent="1" source="GyMKaZcAImTs9EdHjO7f-239" target="GyMKaZcAImTs9EdHjO7f-198">
          <mxGeometry relative="1" as="geometry">
            <mxPoint x="340" y="280" as="sourcePoint" />
            <mxPoint x="500" y="280" as="targetPoint" />
          </mxGeometry>
        </mxCell>
        <mxCell id="GyMKaZcAImTs9EdHjO7f-246" value="成绩" style="ellipse;whiteSpace=wrap;html=1;align=center;fillColor=none;" vertex="1" parent="1">
          <mxGeometry x="30" y="200" width="100" height="40" as="geometry" />
        </mxCell>
        <mxCell id="GyMKaZcAImTs9EdHjO7f-248" value="年份" style="ellipse;whiteSpace=wrap;html=1;align=center;fillColor=none;" vertex="1" parent="1">
          <mxGeometry x="40" y="80" width="100" height="40" as="geometry" />
        </mxCell>
        <mxCell id="GyMKaZcAImTs9EdHjO7f-250" value="学期" style="ellipse;whiteSpace=wrap;html=1;align=center;fillColor=none;" vertex="1" parent="1">
          <mxGeometry x="60" y="10" width="100" height="40" as="geometry" />
        </mxCell>
        <mxCell id="GyMKaZcAImTs9EdHjO7f-251" value="" style="endArrow=none;html=1;rounded=0;exitX=0;exitY=0;exitDx=0;exitDy=0;" edge="1" parent="1" source="GyMKaZcAImTs9EdHjO7f-199" target="GyMKaZcAImTs9EdHjO7f-250">
          <mxGeometry relative="1" as="geometry">
            <mxPoint x="340" y="280" as="sourcePoint" />
            <mxPoint x="500" y="280" as="targetPoint" />
          </mxGeometry>
        </mxCell>
        <mxCell id="GyMKaZcAImTs9EdHjO7f-253" value="" style="edgeStyle=orthogonalEdgeStyle;rounded=0;orthogonalLoop=1;jettySize=auto;html=1;endArrow=none;endFill=0;" edge="1" parent="1" source="GyMKaZcAImTs9EdHjO7f-252" target="GyMKaZcAImTs9EdHjO7f-199">
          <mxGeometry relative="1" as="geometry" />
        </mxCell>
        <mxCell id="GyMKaZcAImTs9EdHjO7f-252" value="班号" style="ellipse;whiteSpace=wrap;html=1;align=center;fontStyle=4;fillColor=none;" vertex="1" parent="1">
          <mxGeometry x="180" y="10" width="100" height="40" as="geometry" />
        </mxCell>
        <mxCell id="GyMKaZcAImTs9EdHjO7f-254" value="(0,N)" style="text;html=1;resizable=0;autosize=1;align=center;verticalAlign=middle;points=[];fillColor=none;strokeColor=none;rounded=0;fontSize=20;" vertex="1" parent="1">
          <mxGeometry x="169" y="265" width="60" height="30" as="geometry" />
        </mxCell>
        <mxCell id="GyMKaZcAImTs9EdHjO7f-255" value="(0,N)" style="text;html=1;resizable=0;autosize=1;align=center;verticalAlign=middle;points=[];fillColor=none;strokeColor=none;rounded=0;fontSize=20;" vertex="1" parent="1">
          <mxGeometry x="169" y="140" width="60" height="30" as="geometry" />
        </mxCell>
        <mxCell id="GyMKaZcAImTs9EdHjO7f-257" value="(1,1)" style="text;html=1;resizable=0;autosize=1;align=center;verticalAlign=middle;points=[];fillColor=none;strokeColor=none;rounded=0;fontSize=20;" vertex="1" parent="1">
          <mxGeometry x="310" y="70" width="60" height="30" as="geometry" />
        </mxCell>
        <mxCell id="GyMKaZcAImTs9EdHjO7f-258" value="(1,N)" style="text;html=1;resizable=0;autosize=1;align=center;verticalAlign=middle;points=[];fillColor=none;strokeColor=none;rounded=0;fontSize=20;" vertex="1" parent="1">
          <mxGeometry x="520" y="70" width="60" height="30" as="geometry" />
        </mxCell>
        <mxCell id="GyMKaZcAImTs9EdHjO7f-259" value="(0,N)" style="text;html=1;resizable=0;autosize=1;align=center;verticalAlign=middle;points=[];fillColor=none;strokeColor=none;rounded=0;fontSize=20;" vertex="1" parent="1">
          <mxGeometry x="540" y="265" width="60" height="30" as="geometry" />
        </mxCell>
        <mxCell id="GyMKaZcAImTs9EdHjO7f-260" value="(1,1)" style="text;html=1;resizable=0;autosize=1;align=center;verticalAlign=middle;points=[];fillColor=none;strokeColor=none;rounded=0;fontSize=20;" vertex="1" parent="1">
          <mxGeometry x="395" y="140" width="60" height="30" as="geometry" />
        </mxCell>
      </root>
    </mxGraphModel>
  </diagram>
</mxfile>
